<?xml version="1.0" encoding="utf-8"?>
<!-- Generator: Adobe Illustrator 16.0.4, SVG Export Plug-In . SVG Version: 6.00 Build 0)  -->
<!DOCTYPE svg PUBLIC "-//W3C//DTD SVG 1.1//EN" "http://www.w3.org/Graphics/SVG/1.1/DTD/svg11.dtd">
<svg version="1.1" id="Layer_1" xmlns="http://www.w3.org/2000/svg" xmlns:xlink="http://www.w3.org/1999/xlink" x="0px" y="0px"
	 width="130.667px" height="143.783px" viewBox="-1.441 -1.883 130.667 143.783"
	 enable-background="new -1.441 -1.883 130.667 143.783" xml:space="preserve">
<path d="M913.355,501.644c12.699,0,23.14-2.635,28.545-4.55v-21.56c0-5.03,0.377-5.988,3.396-6.467l4.527-0.841v-1.315h-31.69v1.316
	l4.778,0.841c4.649,0.838,5.028,1.438,5.028,7.424v19.165c-3.019,1.797-8.051,3.354-15.093,3.354
	c-19.362,0-26.657-14.253-26.657-42.16c0-27.665,10.939-37.965,27.789-37.965c8.807,0,12.827,2.156,17.106,7.785
	c3.521,4.672,5.156,8.623,7.797,14.492h1.384l-1.258-22.037c-6.162-1.917-14.084-2.875-23.768-2.875
	c-21.252,0-44.017,9.7-44.017,43.476c0.004,28.146,15.221,41.919,42.134,41.919 M855.144,500.925h4.904v-71.857
	c0-6.707,0.754-8.146,4.904-9.224l4.526-1.078v-1.316H845.96v1.316l5.407,1.078c4.651,1.078,5.156,2.397,5.156,9.46v48.747h-0.381
	l-41.5-60.603H790.5v1.316l4.4,0.84c4.023,0.837,5.029,1.916,5.029,7.426v61.68c0,7.19-0.88,8.265-4.903,9.343l-4.78,1.078v1.317
	h23.392v-1.316l-4.901-1.077c-4.78-1.199-5.28-2.274-5.28-9.463v-62.397h0.376l51.31,74.732L855.144,500.925z M747.184,501.646
	c22.137,0,30.311-11.496,30.311-26.23v-46.35c0-6.708,0.754-8.385,4.776-9.224l4.903-1.077v-1.316H762.15v1.316l5.782,1.078
	c4.902,0.96,5.154,2.756,5.154,9.463v44.914c0,14.61-6.162,22.275-21.38,22.275c-15.466,0-22.76-6.467-22.76-21.56v-47.907
	c0-6.107,0.503-6.468,5.156-7.426l4.525-0.84v-1.315H704.8v1.316l4.78,0.84c4.525,0.838,5.03,1.317,5.03,7.426v47.189
	c0,20.124,12.075,27.431,32.572,27.431 M678.043,420.087c10.94,0,12.575,2.036,15.34,7.545c1.891,3.832,4.15,8.982,6.29,14.49h1.51
	l-1.26-24.67h-66.647l-1.386,24.67h1.513c2.264-5.508,4.522-10.658,6.54-14.49c2.64-5.39,4.396-7.545,15.34-7.545h4.149v70.782
	c0,6.109-0.503,6.588-5.279,7.426l-4.78,0.84v1.317h34.458v-1.316l-4.654-0.84c-5.029-0.956-5.406-1.437-5.406-7.425v-70.782h4.272
	L678.043,420.087z M593.751,500.451h33.955v-1.316l-4.654-0.84c-4.649-0.837-5.152-1.314-5.152-7.425v-63.84
	c0-6.11,0.504-6.591,5.153-7.428l4.655-0.84v-1.316H593.75v1.317l4.78,0.84c4.525,0.837,5.03,1.316,5.03,7.426v63.835
	c0,6.109-0.505,6.588-5.03,7.426l-4.78,0.84v1.317L593.751,500.451z M572.426,442.961h-1.384c-0.88,3.595-1.76,6.708-3.017,8.862
	c-1.763,3.593-3.396,4.191-13.96,4.191h-7.294v-34.733c3.646-0.719,7.797-1.077,14.085-1.077c11.316,0,14.336,0.72,17.855,5.99
	c1.762,2.754,3.9,7.186,6.163,12.215h1.384l-1.384-20.958h-62.25v1.316l4.654,0.84c4.525,0.957,5.029,1.316,5.029,7.426v63.835
	c0,6.109-0.63,6.47-5.029,7.426l-4.653,0.84v1.317h64.764l1.763-25.15h-1.511c-2.39,6.107-4.777,12.215-7.67,16.287
	c-3.772,4.79-5.533,6.107-17.731,6.107c-14.84,0-15.47-0.479-15.47-9.58v-29.344h7.296c10.438,0,12.322,0.48,13.96,4.072
	c1.13,2.274,2.137,5.389,3.017,8.862h1.385v-28.744L572.426,442.961z M452.468,500.451h61.872l2.264-24.912h-1.385
	c-2.642,5.87-5.029,11.14-7.798,15.092c-4.653,6.586-5.784,7.306-28.923,7.306h-10.062v-0.48l48.289-77.25v-2.754H458.88
	l-1.76,23.952h1.383c2.64-5.988,4.653-10.181,7.294-14.73c2.769-4.67,4.78-6.586,24.271-6.586h10.439v0.479l-48.04,77.011
	L452.468,500.451L452.468,500.451z"/>
<path fill="#2A4D86" d="M126.31,139.478l0.294-2.107h-3.51l4.068-4.24l0.295-2.05H120.7l-0.311,2.111h3.312l-4.067,4.238
	l-0.277,2.05h6.951L126.31,139.478z M118.072,139.478l1.146-8.396h-3.035l-1.146,8.397L118.072,139.478L118.072,139.478z
	 M119.319,130.231l0.343-2.592h-3.034l-0.345,2.593h3.034L119.319,130.231z M111.727,134.263h-2.196
	c0.214-1.008,0.706-1.44,1.279-1.44C111.482,132.823,111.843,133.255,111.727,134.263 M114.483,135.193
	c0.31-2.18-0.82-4.29-3.431-4.29c-3.082,0-4.59,2.336-4.59,5.088c0,2.131,1.328,3.664,3.788,3.664c1.985,0,3.084-0.779,3.953-1.729
	l-1.36-1.311c-0.542,0.48-1.05,0.896-2.035,0.896c-0.949,0-1.54-0.48-1.508-1.584h5.067
	C114.402,135.688,114.435,135.511,114.483,135.193 M106.888,131.079h-2.558l-1.561,4.13h-0.031l-0.508-4.13H100l-1.722,4.13h-0.033
	l-0.345-4.13h-3l1.426,8.399h2.359l1.657-4.206h0.033l0.442,4.207h2.378l3.689-8.399L106.888,131.079z M93.043,139.479l0.87-6.396
	c0.196-1.455-0.345-2.179-1.608-2.179c-1.031,0-1.935,0.447-2.949,1.2l0.59-4.464h-3.034l-1.59,11.84h3.031l0.757-5.614
	c0.377-0.317,0.819-0.56,1.195-0.56c0.346,0,0.509,0.206,0.46,0.575l-0.755,5.6h3.032L93.043,139.479z M84.591,137.049l-2.197-1.152
	c-0.46,1.2-0.869,1.553-1.427,1.553c-0.54,0-0.899-0.572-0.899-1.438c0-1.55,0.439-2.928,1.376-2.928c0.654,0,0.949,0.56,1.032,1.31
	l2.511-0.862c-0.23-1.52-1.247-2.625-3.493-2.625c-2.772,0-4.362,2.16-4.362,5.04c0,1.856,0.984,3.712,3.561,3.712
	C82.754,139.656,84.017,138.489,84.591,137.049 M76.447,136.472c0-1.328-0.655-1.95-3.246-2.625
	c-0.574-0.143-0.738-0.303-0.723-0.543c0.017-0.256,0.345-0.432,0.854-0.416c0.526,0,1.23,0.19,1.985,0.688l1.427-1.407
	c-1.115-0.863-2.345-1.267-3.526-1.267c-2,0-3.657,1.061-3.657,2.851c0,1.537,0.9,2.21,3.197,2.928
	c0.69,0.21,0.771,0.32,0.771,0.576s-0.295,0.45-0.82,0.465c-0.655,0.016-1.59-0.27-2.312-1.04l-1.622,1.23
	c0.95,1.185,2.461,1.742,3.902,1.742C74.644,139.654,76.446,138.52,76.447,136.472 M67.842,139.495l0.296-2.16
	c-0.229,0.05-0.426,0.08-0.754,0.08c-0.574,0-0.788-0.336-0.706-0.929l0.428-3.296h1.49l0.313-2.112h-1.493l0.359-2.75h-2.982
	l-0.36,2.75h-0.87l-0.31,2.113h0.868c0,0-0.426,3.008-0.492,3.44c-0.28,1.84,0.443,2.958,2.59,2.958c0.706,0,1.23-0.03,1.625-0.095
	 M62.32,136.471c0-1.328-0.656-1.95-3.247-2.625c-0.575-0.143-0.74-0.303-0.724-0.543c0.018-0.256,0.346-0.432,0.854-0.416
	c0.523,0,1.229,0.19,1.983,0.688l1.428-1.408c-1.114-0.863-2.346-1.267-3.524-1.267c-2,0-3.657,1.061-3.657,2.851
	c0,1.537,0.9,2.21,3.196,2.928c0.688,0.21,0.77,0.32,0.77,0.576s-0.294,0.45-0.817,0.465c-0.656,0.016-1.59-0.27-2.312-1.04
	l-1.624,1.23c0.952,1.185,2.46,1.742,3.903,1.742c1.967,0,3.771-1.134,3.771-3.183 M51.48,134.262h-2.195
	c0.213-1.008,0.705-1.44,1.277-1.44C51.235,132.822,51.596,133.254,51.48,134.262 M54.236,135.192c0.312-2.18-0.82-4.29-3.429-4.29
	c-3.083,0-4.592,2.336-4.592,5.088c0,2.131,1.33,3.664,3.788,3.664c1.986,0,3.084-0.779,3.954-1.729l-1.362-1.311
	c-0.54,0.48-1.05,0.896-2.033,0.896c-0.949,0-1.542-0.48-1.51-1.584h5.067C54.154,135.687,54.187,135.51,54.236,135.192
	 M46.69,131.078h-2.56l-1.557,4.13h-0.032l-0.51-4.13h-2.23l-1.72,4.13h-0.033l-0.345-4.13h-3l1.426,8.399h2.36l1.656-4.206h0.032
	l0.443,4.207H43L46.69,131.078L46.69,131.078z M29.951,137.031c-0.247,0.226-0.561,0.386-0.855,0.386
	c-0.508,0-0.982-0.355-0.982-1.44c0-1.936,0.64-2.832,1.378-2.832c0.359,0,0.705,0.16,0.935,0.385l-0.476,3.5L29.951,137.031z
	 M32.918,139.479c-0.13-0.415-0.098-1.183,0.017-2.06l1.312-9.776h-3.034l-0.558,4.226c-0.443-0.497-1.148-0.963-2.164-0.963
	c-1.657,0-3.33,1.761-3.33,5.185c0,2.479,1.165,3.567,2.428,3.567c0.853,0,1.574-0.446,2.13-0.96c0,0.288,0.05,0.544,0.133,0.784
	h3.065L32.918,139.479L32.918,139.479z M24.68,133.912l0.41-3.009h-0.05c-0.95,0-2.033,0.736-2.722,1.775h-0.033l0.214-1.6h-3.034
	l-1.146,8.397h3.032l0.656-4.768c0.771-0.496,1.738-0.8,2.623-0.8h0.05V133.912z M13.517,137.56c-0.819-0.048-1.1-0.782-0.87-2.32
	c0.265-1.79,0.82-2.304,1.561-2.236c0.787,0.062,0.95,0.733,0.738,2.317C14.698,137.115,14.173,137.594,13.517,137.56
	 M13.254,139.657c2.79,0.033,4.674-1.967,4.658-5.229c0-2.176-1.197-3.488-3.575-3.521c-3.017-0.048-4.657,2.146-4.657,5.2
	C9.68,138.25,11.172,139.628,13.254,139.657 M7.947,139.482l0.87-6.335c0.196-1.455-0.427-2.24-1.674-2.24
	c-1.033,0-1.95,0.468-2.886,1.2l0.148-1.021H1.371l-1.148,8.397h3.034l0.754-5.613c0.41-0.318,0.87-0.561,1.197-0.561
	c0.327,0,0.51,0.224,0.46,0.64l-0.755,5.535h3.034V139.482z"/>
<g>
	<g>
		<defs>
			<rect id="SVGID_1_" y="-0.883" width="127.848" height="125.193"/>
		</defs>
		<clipPath id="SVGID_2_">
			<use xlink:href="#SVGID_1_"  overflow="visible"/>
		</clipPath>
		<path clip-path="url(#SVGID_2_)" fill="#2A4D86" d="M124.427,97.442l-2.689,13.154H63.83l0.797-7.277l-0.198-0.193v0.194
			c-3.79,5.983-10.466,8.48-17.443,8.48c-11.163,0-17.345-4.988-17.345-15.055c0-12.759,12.761-19.037,28.608-19.037
			c3.586,0,7.173,0.3,9.666,0.5c0.2-0.697,0.2-1.396,0.2-2.099c0-3.686-3.688-6.676-9.566-6.676c-6.479,0-10.868,0.996-16.847,4.086
			l1.795-13.057c5.28-1.794,10.963-2.99,19.035-2.99c12.359,0,22.526,4.886,22.526,17.645c0,5.204-1.859,11.834-3.728,20.006
			l26.15-23.297H85.253l2.69-13.156h39.899V-0.881H0v125.193h127.846V73.428l-27.143,24.014H124.427L124.427,97.442z"/>
	</g>
	<g>
		<g>
			<defs>
				<rect id="SVGID_3_" y="-0.883" width="127.848" height="125.193"/>
			</defs>
			<clipPath id="SVGID_4_">
				<use xlink:href="#SVGID_3_"  overflow="visible"/>
			</clipPath>
			<path clip-path="url(#SVGID_4_)" fill="#2A4D86" d="M46.587,94.648c0,2.397,2.29,5.188,6.08,5.188
				c7.675,0,12.26-5.285,13.553-12.267c-1.489-0.294-3.687-0.294-4.782-0.294c-8.569-0.3-14.85,2.79-14.85,7.375"/>
		</g>
	</g>
	<g>
		<g>
			<defs>
				<rect id="SVGID_5_" y="-0.883" width="127.848" height="125.193"/>
			</defs>
			<clipPath id="SVGID_6_">
				<use xlink:href="#SVGID_5_"  overflow="visible"/>
			</clipPath>
			<path clip-path="url(#SVGID_6_)" fill="#FFFFFF" d="M52.667,99.833c-3.788,0-6.08-2.79-6.08-5.185
				c0-4.585,6.28-7.675,14.851-7.376c1.098,0,3.295,0,4.782,0.297c-1.294,6.98-5.878,12.266-13.553,12.266 M127.847,58.67H87.947
				l-2.69,13.155h22.228L81.336,95.122c1.867-8.17,3.727-14.801,3.727-20.007c0-12.758-10.166-17.643-22.525-17.643
				c-8.072,0-13.755,1.196-19.036,2.99l-1.795,13.058c5.979-3.09,10.367-4.085,16.844-4.085c5.883,0,9.57,2.99,9.57,6.676
				c0,0.702,0,1.4-0.2,2.098c-2.493-0.2-6.08-0.5-9.666-0.5c-15.85,0-28.608,6.279-28.608,19.037
				c0,10.067,6.184,15.055,17.345,15.055c6.978,0,13.654-2.495,17.442-8.479v-0.199l0.198,0.199l-0.796,7.28h57.905l2.689-13.157
				h-23.724l27.144-24.014v-14.76h-0.002L127.847,58.67z"/>
		</g>
	</g>
</g>
</svg>
