<?xml version="1.0" encoding="utf-8"?>
<!-- Generator: Adobe Illustrator 16.0.4, SVG Export Plug-In . SVG Version: 6.00 Build 0)  -->
<!DOCTYPE svg PUBLIC "-//W3C//DTD SVG 1.1//EN" "http://www.w3.org/Graphics/SVG/1.1/DTD/svg11.dtd">
<svg version="1.1" id="Layer_1" xmlns:sketch="http://www.bohemiancoding.com/sketch/ns"
	 xmlns="http://www.w3.org/2000/svg" xmlns:xlink="http://www.w3.org/1999/xlink" x="0px" y="0px" width="125.575px"
	 height="146.401px" viewBox="-0.751 -0.917 125.575 146.401" enable-background="new -0.751 -0.917 125.575 146.401"
	 xml:space="preserve">
<title>logo_full</title>
<desc>Created with Sketch.</desc>
<g>
	<path sketch:type="MSShapeGroup" fill="#00F0DB" d="M78.31,84.738c-0.329,0.756-0.673,1.504-1.038,2.219
		c-2.47,4.917-5.192,8.056-6.814,15.107l1.69,1.375l0.732,1.826l3.53,0.586c-0.064-7.041,2.45-12.974,2.45-12.974
		c1.414-0.351,2.853-1.496,2.853-1.496c-2.268,0.478-5.099,0.129-5.099,0.129c2.029-3.812,2.667-6.552,2.667-6.552L78.31,84.738z
		 M26.191,108.612c-0.014-0.455-0.113-0.992-0.419-1.474c0,0,2.893-4.334,4.856-10.156c1.58,0.709,4.921-0.631,5.061-4.222
		c0.144-3.586-0.462-9.162,2.636-13.412c3.095-4.265,6.431-6.572,10.794-9.946c2.831-2.188,7.634-5.885,10.651-8.213l-1.497-0.443
		L47.405,69.1h-3.8l10.984-9.447l-1.417-0.425l-11.479,9.882h-3.854l11.357-11.056l-1.365-0.408L36.051,69.109h-3.937l11.418-12.74
		l-1.324-0.39L30.44,69.109h-4.14l11.081-14.572l-1.274-0.369L24.737,69.109H21c0,0,15.964-25.192,19.109-30.117
		s6.551-9.25,12.173-10.218c5.683-0.976,9.557,0.532,12.337,5.253c1.501,2.537,3.303,5.541,4.73,7.888
		c-1.444,2.396-3.255,4.309-3.427,7.187c-0.205,3.309,1.965,5.342,4.149,5.5c-1.646-0.596-2.942-2.587-2.355-5.248
		c0.611-2.745,2.74-4.136,4.355-6.361c1.393-1.918,1.411-4.729,1.305-5.662c-0.101-0.949-1.127-1.67-1.127-1.67s0.031-1.879,0-3.932
		c-0.04-2.045,0.824-3.23,0.824-3.23s-0.025-3.059-0.142-6.639c-0.097-3.445-0.418-4.481-0.731-4.942c0,0,0.248-0.989,1.176-2.061
		l0.95,0.879l0.284-1.974c0.604-0.423,1.329-0.802,2.239-1.076l0.293-0.078l1.196,1.444l0.731-1.821
		c1.097-0.11,2.046-0.042,2.841,0.136l0.664,1.899l0.851-1.365c0.653,0.354,1.065,0.757,1.18,1.072c0,0-0.172,1.146,0.111,2.988
		c0.264,1.777,1.032,5.735,1.032,5.735c1.064,0.904,2.277,2.954,2.277,2.954c0.736,3.664,0.684,6.511,0.684,6.511l-1.362,1.312
		l0.879,3.164l-1.136,1.464l1.062,1.18c0.071,1.393-0.396,2.785-0.396,2.785c2.22,1.46,2.849,4.956,4.234,10.842
		c1.395,5.9,2.636,10.751,2.636,10.751l-2.071,1.193c2.738,10.22-0.045,18.359-3.562,23.727c-3.514,5.372-5.626,10.706-5.56,15.469
		l1.719,1.392l0.892,2.028l33.185,5.386c1.126-6.15,3.909-24.149,3.909-50.855c0-33.386-4.367-53.194-4.367-53.194
		c-0.774-2.166-2.229-3.702-4.128-4.169c0,0-19.546-4.409-52.692-4.409C28.8,0.226,9.253,4.635,9.253,4.635
		C7.903,4.887,5.755,6.587,5.132,8.784c0,0-4.366,20.599-4.366,53.192c0,23.854,2.338,41.275,3.589,48.908L26.191,108.612
		L26.191,108.612z M49.833,101.743l3.046,4.229l10.416-1.026c0.082-5.128,2.275-11.691,3.203-13.572
		c-5.857,0.666-12.842-2.361-18.38-1.201c-1.531,10.037-9.307,12.018-12.964,11.466l-2.612,4.513l1.817,1.662l12.725-1.257
		c-0.805-1.348-2.281-3.735-3.598-5.364c2.167-1.457,4.933-4.277,6.048-9.546c2.396-0.242,5.1,0.205,7.96,0.69l0.426,0.063
		C57.445,95.854,54.622,100.273,49.833,101.743z"/>
	<path sketch:type="MSShapeGroup" fill="#FFFFFF" d="M4.46,127.943c0-0.647,0.024-1.25,0.134-1.334
		c0.136-0.099,0.945-0.162,1.693-0.162c0.786,0,1.523,0.074,1.658,0.162c0.135,0.097,0.147,0.611,0.147,1.334v11.738
		c0,0.218,0.05,0.537,0.113,0.599c0.072,0.074,0.404,0.109,0.611,0.109h5.598c0.368,0,0.98,0,1.055,0.1
		c0.061,0.099,0.121,0.933,0.121,1.546c0,0.612-0.061,1.375-0.121,1.475c-0.075,0.099-0.479,0.121-1.055,0.121H6.117
		c-0.588,0-1.264-0.108-1.412-0.246c-0.146-0.133-0.245-0.834-0.245-1.413V127.943L4.46,127.943L4.46,127.943z M18.257,135.307
		c-0.013-4.478,0.589-7.656,1.021-8.134c0.341-0.381,2.39-0.946,5.828-0.946c3.572,0,5.646,0.59,6.002,0.969
		c0.417,0.431,1.006,3.658,1.006,8.111v6.828c0,0.646-0.025,1.25-0.136,1.335c-0.11,0.086-0.895,0.161-1.657,0.161
		c-0.747,0-1.495-0.075-1.606-0.161c-0.135-0.099-0.161-0.601-0.161-1.335v-3.022c0-0.467-0.073-0.92-0.109-0.969
		c-0.036-0.037-0.503-0.111-0.97-0.111h-4.578c-0.465,0-0.93,0.063-0.967,0.111c-0.038,0.049-0.111,0.518-0.111,0.969v3.022
		c0,0.636-0.024,1.25-0.149,1.335c-0.108,0.086-0.883,0.161-1.644,0.161c-0.747,0-1.51-0.075-1.621-0.161
		c-0.123-0.085-0.146-0.611-0.146-1.335V135.307L18.257,135.307z M27.474,135.188c0.466,0,0.934-0.075,0.97-0.124
		c0.037-0.035,0.108-0.515,0.108-1.019c0-1.927-0.221-4.136-0.55-4.443c-0.245-0.22-1.326-0.49-2.823-0.49
		c-1.535,0-2.578,0.296-2.811,0.49c-0.345,0.281-0.552,2.517-0.552,4.431c0,0.541,0.074,0.996,0.111,1.031
		c0.036,0.038,0.502,0.124,0.968,0.124H27.474z M36.311,127.825c0.074-0.765,0.234-1.144,0.333-1.216
		c0.157-0.125,1.031-0.162,1.595-0.162c0.725,0,1.485,0.063,1.645,0.173c0.122,0.086,0.283,0.366,0.613,0.993l3.965,8.052
		c0.073,0.121,0.17,0.134,0.245,0l3.94-8.041c0.33-0.612,0.502-0.908,0.625-0.994c0.172-0.121,0.857-0.183,1.521-0.183
		c0.578,0,1.364,0.05,1.534,0.162c0.073,0.058,0.246,0.377,0.331,1.238l1.498,14.617c0.062,0.502,0.085,0.834,0.013,0.933
		c-0.087,0.097-0.701,0.281-1.72,0.394c-0.503,0.047-0.91,0.06-1.202,0.06c-0.248,0-0.405-0.037-0.454-0.086
		c-0.075-0.074-0.135-0.442-0.185-1.082l-0.846-10.333c-0.011-0.157-0.171-0.196-0.246-0.047l-3.534,7.279
		c-0.061,0.1-0.232,0.403-0.307,0.438c-0.087,0.063-0.786,0.123-1.301,0.123c-0.528,0-1.08-0.06-1.203-0.134
		c-0.073-0.039-0.222-0.258-0.32-0.442l-3.362-7.146c-0.073-0.147-0.22-0.107-0.233,0.026l-0.944,10.287
		c-0.051,0.55-0.112,0.968-0.198,1.056c-0.037,0.047-0.233,0.06-0.515,0.06c-0.27,0-0.627-0.026-1.02-0.06
		c-0.663-0.074-1.486-0.269-1.596-0.394c-0.085-0.099-0.05-0.563,0-1.08L36.311,127.825z M57.069,135.307
		c-0.013-4.478,0.588-7.656,1.018-8.134c0.342-0.381,2.392-0.946,5.83-0.946c3.571,0,5.646,0.59,6,0.969
		c0.418,0.431,1.007,3.658,1.007,8.111v6.828c0,0.646-0.023,1.25-0.134,1.335c-0.111,0.086-0.896,0.161-1.657,0.161
		c-0.75,0-1.498-0.075-1.61-0.161c-0.135-0.099-0.159-0.601-0.159-1.335v-3.022c0-0.467-0.075-0.92-0.111-0.969
		c-0.039-0.037-0.502-0.111-0.968-0.111h-4.58c-0.466,0-0.933,0.063-0.969,0.111c-0.036,0.049-0.11,0.518-0.11,0.969v3.022
		c0,0.636-0.024,1.25-0.148,1.335c-0.109,0.086-0.883,0.161-1.645,0.161c-0.747,0-1.508-0.075-1.62-0.161
		c-0.124-0.085-0.146-0.611-0.146-1.335v-6.828H57.069z M66.286,135.188c0.466,0,0.931-0.075,0.968-0.124
		c0.037-0.035,0.111-0.515,0.111-1.019c0-1.927-0.221-4.136-0.551-4.443c-0.247-0.22-1.326-0.49-2.823-0.49
		c-1.534,0-2.577,0.296-2.813,0.49c-0.344,0.281-0.552,2.517-0.552,4.431c0,0.541,0.075,0.996,0.11,1.031
		c0.036,0.038,0.504,0.124,0.969,0.124H66.286z M74.389,141.494c0.12-0.648,0.318-1.312,0.428-1.337
		c0.136-0.038,2.799,0.515,5.486,0.515c1.572,0,2.847-0.146,3.083-0.354c0.195-0.185,0.293-0.886,0.293-1.584
		c0-0.601-0.074-1.091-0.247-1.263c-0.246-0.246-2.429-0.724-4.43-1.315c-2.577-0.735-3.733-1.177-4.026-1.521
		c-0.319-0.381-0.625-2.123-0.625-3.671c0-1.766,0.27-3.373,0.588-3.729c0.33-0.368,2.147-1.008,5.533-1.008
		c3.548,0,5.647,0.726,5.733,0.858c0.047,0.09-0.012,0.765-0.135,1.289c-0.123,0.578-0.367,1.375-0.565,1.375
		c-0.171,0.015-2.491-0.576-4.615-0.576c-1.705,0-2.871,0.246-3.067,0.418c-0.162,0.146-0.248,0.673-0.248,1.544
		c0,0.603,0.062,1.032,0.235,1.182c0.256,0.205,1.078,0.402,3.583,1.029c2.331,0.576,4.578,1.34,4.896,1.683
		c0.356,0.405,0.564,2.629,0.564,3.767c0,1.694-0.367,3.769-0.725,4.125c-0.255,0.257-2.526,0.933-6.158,0.933
		c-2.837,0-5.583-0.688-5.67-0.801C74.228,142.969,74.265,142.17,74.389,141.494L74.389,141.494z M89.717,141.494
		c0.123-0.648,0.32-1.312,0.431-1.337c0.133-0.038,2.797,0.515,5.484,0.515c1.571,0,2.849-0.146,3.083-0.354
		c0.195-0.185,0.293-0.886,0.293-1.584c0-0.601-0.074-1.091-0.246-1.263c-0.245-0.246-2.43-0.724-4.43-1.315
		c-2.577-0.735-3.732-1.177-4.028-1.521c-0.318-0.381-0.626-2.123-0.626-3.671c0-1.766,0.271-3.373,0.589-3.729
		c0.333-0.368,2.148-1.008,5.535-1.008c3.547,0,5.647,0.726,5.732,0.858c0.048,0.09-0.012,0.765-0.135,1.289
		c-0.123,0.578-0.37,1.375-0.564,1.375c-0.171,0.015-2.491-0.576-4.616-0.576c-1.706,0-2.872,0.246-3.068,0.418
		c-0.161,0.146-0.246,0.673-0.246,1.544c0,0.603,0.06,1.032,0.231,1.182c0.258,0.205,1.08,0.402,3.584,1.029
		c2.332,0.576,4.578,1.34,4.897,1.683c0.355,0.405,0.565,2.629,0.565,3.767c0,1.694-0.37,3.769-0.725,4.125
		c-0.258,0.257-2.53,0.933-6.161,0.933c-2.835,0-5.586-0.688-5.671-0.801C89.559,142.969,89.595,142.17,89.717,141.494z
		 M105.246,127.943c0-0.733,0.024-1.226,0.146-1.334c0.122-0.099,0.748-0.162,1.534-0.162c0.847,0,1.534,0.074,1.646,0.162
		c0.109,0.108,0.133,0.647,0.133,1.334v7.132c0,2.297,0.344,4.606,0.602,4.96c0.222,0.291,1.276,0.491,2.871,0.491
		c1.573,0,2.775-0.272,3.02-0.506c0.368-0.392,0.565-2.699,0.565-4.945v-7.132c0-0.674,0.023-1.228,0.147-1.334
		c0.109-0.088,0.823-0.162,1.632-0.162c0.824,0,1.411,0.074,1.533,0.162c0.136,0.106,0.149,0.601,0.149,1.334v7.499
		c0,3.72-0.554,7.022-0.983,7.451c-0.368,0.358-2.307,0.957-5.903,0.957c-3.707,0-5.743-0.552-6.101-0.945
		c-0.429-0.479-0.993-3.795-0.993-7.463L105.246,127.943L105.246,127.943L105.246,127.943z"/>
</g>
</svg>
