<svg xmlns="http://www.w3.org/2000/svg" width="512" height="512" viewBox="0 0 512 512"><path d="M284.1 298.4c-6.1 6.1-.9 17.3-.9 17.3l45.8 76.4s7.5 10.1 14 10.1 13-5.4 13-5.4l36.2-51.7s3.6-6.5 3.7-12.2c.1-8.1-12.1-10.4-12.1-10.4L298.1 295c0-.1-8.4-2.3-14 3.4zm-4.4-38.6c4.4 7.4 16.5 5.3 16.5 5.3l85.5-25s11.6-4.7 13.3-11.1c1.6-6.3-1.9-13.9-1.9-13.9L352.2 167s-3.5-6.1-10.9-6.7c-8.1-.7-13.1 9.1-13.1 9.1l-48.3 76c.1 0-4.2 7.6-.2 14.4zm-40.3-29.6c10.1-2.5 11.7-17.1 11.7-17.1l-.7-121.7s-1.5-15-8.3-19.1c-10.6-6.4-13.7-3.1-16.7-2.6l-71 26.4s-6.9 2.3-10.6 8.1c-5.2 8.2 5.3 20.2 5.3 20.2L222.8 225s7.3 7.5 16.6 5.2zm-17.6 49.3c.3-9.4-11.3-15-11.3-15L134.2 226s-11.3-4.7-16.8-1.4c-4.2 2.5-7.9 7-8.3 11l-5 61.2s-.7 10.6 2 15.4c3.9 6.8 16.7 2.1 16.7 2.1l89.1-19.7c3.5-2.5 9.6-2.7 9.9-15.1zm22.2 33c-7.6-3.9-16.8 4.2-16.8 4.2l-59.6 65.6s-7.4 10-5.5 16.2c1.8 5.8 4.7 8.6 8.9 10.7l59.9 18.9s7.3 1.5 12.8-.1c7.8-2.3 6.4-14.5 6.4-14.5l1.4-88.9c-.2 0-.5-8.5-7.5-12.1zm0 0"/></svg>