<svg xmlns="http://www.w3.org/2000/svg" width="512" height="512" viewBox="0 0 512 512"><path d="M425.056 290.642a170.892 170.892 0 0 0 3.952-36.627c0-94.278-76.446-170.715-170.715-170.715-9.952 0-19.709.859-29.2 2.499-15.253-9.607-33.305-15.19-52.669-15.19-54.671 0-99.001 44.329-99.001 99.001 0 18.273 4.972 35.378 13.612 50.072a171.123 171.123 0 0 0-3.456 34.333c0 94.268 76.428 170.713 170.713 170.713 10.68 0 21.119-.992 31.258-2.87 13.949 7.497 29.866 11.751 46.812 11.751 54.662 0 98.991-44.312 98.991-99.01a98.65 98.65 0 0 0-10.297-43.957zm-79.211 44.95c-7.889 11.185-19.568 20.028-34.688 26.32-14.96 6.222-32.915 9.377-53.342 9.377-24.522 0-45.074-4.307-61.123-12.833-11.468-6.187-20.925-14.569-28.103-24.921-7.25-10.457-10.928-20.844-10.928-30.858 0-6.257 2.394-11.681 7.117-16.111 4.679-4.396 10.67-6.629 17.822-6.629 5.858 0 10.918 1.755 15.031 5.229 3.935 3.332 7.302 8.259 10.014 14.623 3.023 6.931 6.328 12.778 9.811 17.387 3.342 4.433 8.163 8.172 14.312 11.078 6.187 2.907 14.534 4.396 24.796 4.396 14.109 0 25.684-3.014 34.387-8.952 8.508-5.795 12.638-12.778 12.638-21.286 0-6.753-2.162-12.053-6.594-16.2-4.661-4.36-10.776-7.729-18.221-10.05-7.746-2.429-18.292-5.017-31.319-7.746-17.654-3.793-32.65-8.277-44.605-13.347l-.132-.053c-12.249-5.211-22.112-12.425-29.326-21.464-7.338-9.173-11.052-20.685-11.052-34.209 0-12.895 3.899-24.522 11.593-34.545 7.639-9.961 18.788-17.698 33.136-23.006 14.171-5.238 31.027-7.896 50.09-7.896 15.253 0 28.652 1.764 39.836 5.238 11.255 3.509 20.738 8.242 28.199 14.064 7.516 5.867 13.082 12.141 16.591 18.655 3.545 6.585 5.354 13.134 5.354 19.479 0 6.097-2.376 11.637-7.019 16.475-4.68 4.856-10.564 7.321-17.53 7.321-6.328 0-11.255-1.543-14.694-4.582-3.19-2.827-6.522-7.232-10.191-13.56-4.271-8.091-9.411-14.463-15.332-18.957-5.725-4.369-15.314-6.584-28.492-6.584-12.239 0-22.191 2.455-29.574 7.302-7.125 4.67-10.581 10.023-10.581 16.36 0 3.891 1.107 7.143 3.403 9.944 2.428 2.96 5.849 5.565 10.174 7.728 4.485 2.251 9.11 4.05 13.736 5.327 4.75 1.32 12.709 3.27 23.628 5.787 11.503 2.473 22.209 5.193 31.957 8.101 1.968.584 3.899 1.179 5.778 1.781 11.379 3.633 21.199 8.126 29.211 13.337 8.17 5.317 14.64 12.16 19.248 20.313 4.608 8.206 6.931 18.327 6.931 30.061-.001 14.071-4.025 26.904-11.947 38.106z"/></svg>